<mxfile host="app.diagrams.net" modified="2024-04-11T09:53:02.070Z" agent="Mozilla/5.0 (Windows NT 10.0; Win64; x64) AppleWebKit/537.36 (KHTML, like Gecko) Chrome/123.0.0.0 Safari/537.36" etag="Kd5V9-x-9oZnRdFCuse3" version="24.2.3" type="device">
  <diagram name="Page-1" id="x0ElggAcgcQ-s3mZNtU1">
    <mxGraphModel dx="1195" dy="643" grid="1" gridSize="10" guides="1" tooltips="1" connect="1" arrows="1" fold="1" page="1" pageScale="1" pageWidth="850" pageHeight="1100" math="0" shadow="0">
      <root>
        <mxCell id="0" />
        <mxCell id="1" parent="0" />
        <mxCell id="zSlqY6Okff1FfsctFwEY-1" value="" style="rounded=0;whiteSpace=wrap;html=1;dashed=1;strokeWidth=2;" vertex="1" parent="1">
          <mxGeometry x="10" y="10" width="470" height="250" as="geometry" />
        </mxCell>
        <mxCell id="zSlqY6Okff1FfsctFwEY-2" value="" style="endArrow=none;dashed=1;html=1;strokeWidth=2;rounded=0;exitX=0.5;exitY=1;exitDx=0;exitDy=0;entryX=0.5;entryY=0;entryDx=0;entryDy=0;" edge="1" parent="1" source="zSlqY6Okff1FfsctFwEY-1" target="zSlqY6Okff1FfsctFwEY-1">
          <mxGeometry width="50" height="50" relative="1" as="geometry">
            <mxPoint x="190" y="50" as="sourcePoint" />
            <mxPoint x="240" as="targetPoint" />
          </mxGeometry>
        </mxCell>
        <mxCell id="zSlqY6Okff1FfsctFwEY-3" value="&lt;b&gt;&lt;font style=&quot;font-size: 16px;&quot;&gt;PS&lt;/font&gt;&lt;/b&gt;" style="text;html=1;align=center;verticalAlign=middle;whiteSpace=wrap;rounded=0;" vertex="1" parent="1">
          <mxGeometry x="10" y="20" width="60" height="30" as="geometry" />
        </mxCell>
        <mxCell id="zSlqY6Okff1FfsctFwEY-4" value="&lt;b&gt;&lt;font style=&quot;font-size: 16px;&quot;&gt;PL&lt;/font&gt;&lt;/b&gt;" style="text;html=1;align=center;verticalAlign=middle;whiteSpace=wrap;rounded=0;" vertex="1" parent="1">
          <mxGeometry x="250" y="20" width="60" height="30" as="geometry" />
        </mxCell>
        <mxCell id="zSlqY6Okff1FfsctFwEY-11" value="&lt;b&gt;BRAM Memory&lt;/b&gt;" style="swimlane;fontStyle=0;childLayout=stackLayout;horizontal=1;startSize=26;fillColor=none;horizontalStack=0;resizeParent=1;resizeParentMax=0;resizeLast=0;collapsible=1;marginBottom=0;html=1;" vertex="1" parent="1">
          <mxGeometry x="310" y="60" width="140" height="78" as="geometry" />
        </mxCell>
        <mxCell id="zSlqY6Okff1FfsctFwEY-12" value="MM2S" style="text;strokeColor=none;fillColor=none;align=center;verticalAlign=top;spacingLeft=4;spacingRight=4;overflow=hidden;rotatable=0;points=[[0,0.5],[1,0.5]];portConstraint=eastwest;whiteSpace=wrap;html=1;" vertex="1" parent="zSlqY6Okff1FfsctFwEY-11">
          <mxGeometry y="26" width="140" height="26" as="geometry" />
        </mxCell>
        <mxCell id="zSlqY6Okff1FfsctFwEY-13" value="S2MM" style="text;strokeColor=none;fillColor=none;align=center;verticalAlign=top;spacingLeft=4;spacingRight=4;overflow=hidden;rotatable=0;points=[[0,0.5],[1,0.5]];portConstraint=eastwest;whiteSpace=wrap;html=1;" vertex="1" parent="zSlqY6Okff1FfsctFwEY-11">
          <mxGeometry y="52" width="140" height="26" as="geometry" />
        </mxCell>
        <mxCell id="zSlqY6Okff1FfsctFwEY-15" value="&lt;font face=&quot;Verdana&quot; style=&quot;font-size: 19px;&quot;&gt;&lt;sup style=&quot;&quot;&gt;hwdbg core&lt;/sup&gt;&lt;/font&gt;" style="shape=offPageConnector;whiteSpace=wrap;html=1;" vertex="1" parent="1">
          <mxGeometry x="310" y="160" width="140" height="50" as="geometry" />
        </mxCell>
        <mxCell id="zSlqY6Okff1FfsctFwEY-17" value="" style="endArrow=classic;html=1;rounded=0;labelPosition=left;verticalLabelPosition=middle;align=right;verticalAlign=middle;entryX=0.5;entryY=1;entryDx=0;entryDy=0;" edge="1" parent="1">
          <mxGeometry width="50" height="50" relative="1" as="geometry">
            <mxPoint x="129.99636363636364" y="214.99999999999994" as="sourcePoint" />
            <mxPoint x="380" y="215.0000000000001" as="targetPoint" />
          </mxGeometry>
        </mxCell>
        <mxCell id="zSlqY6Okff1FfsctFwEY-18" value="&lt;b&gt;&amp;nbsp; &amp;nbsp;GPIO Signal&amp;nbsp; &amp;nbsp;&lt;/b&gt;" style="edgeLabel;html=1;align=center;verticalAlign=middle;resizable=0;points=[];fontSize=14;labelBorderColor=default;spacing=13;" vertex="1" connectable="0" parent="zSlqY6Okff1FfsctFwEY-17">
          <mxGeometry x="0.3429" y="-1" relative="1" as="geometry">
            <mxPoint x="-53" y="-1" as="offset" />
          </mxGeometry>
        </mxCell>
        <mxCell id="zSlqY6Okff1FfsctFwEY-19" value="" style="endArrow=classic;html=1;rounded=0;exitX=0.5;exitY=1;exitDx=0;exitDy=0;" edge="1" parent="1" source="zSlqY6Okff1FfsctFwEY-15">
          <mxGeometry width="50" height="50" relative="1" as="geometry">
            <mxPoint x="295" y="243" as="sourcePoint" />
            <mxPoint x="130" y="240" as="targetPoint" />
            <Array as="points">
              <mxPoint x="380" y="240" />
            </Array>
          </mxGeometry>
        </mxCell>
        <mxCell id="zSlqY6Okff1FfsctFwEY-20" value="&lt;b&gt;&amp;nbsp; Interrupt Line&amp;nbsp;&amp;nbsp;&lt;/b&gt;" style="edgeLabel;html=1;align=center;verticalAlign=middle;resizable=0;points=[];fontSize=14;labelBorderColor=default;" vertex="1" connectable="0" parent="zSlqY6Okff1FfsctFwEY-19">
          <mxGeometry x="-0.306" y="-1" relative="1" as="geometry">
            <mxPoint x="-69" y="1" as="offset" />
          </mxGeometry>
        </mxCell>
        <mxCell id="zSlqY6Okff1FfsctFwEY-21" value="&lt;b&gt;ARM Core&lt;/b&gt;" style="sketch=0;pointerEvents=1;shadow=0;dashed=0;html=1;strokeColor=none;fillColor=#434445;aspect=fixed;labelPosition=center;verticalLabelPosition=bottom;verticalAlign=top;align=center;outlineConnect=0;shape=mxgraph.vvd.cpu;" vertex="1" parent="1">
          <mxGeometry x="40" y="37.5" width="150" height="150" as="geometry" />
        </mxCell>
        <mxCell id="zSlqY6Okff1FfsctFwEY-22" value="" style="endArrow=classic;html=1;rounded=0;exitX=1;exitY=0.5;exitDx=0;exitDy=0;entryX=0;entryY=0.25;entryDx=0;entryDy=0;" edge="1" parent="1">
          <mxGeometry width="50" height="50" relative="1" as="geometry">
            <mxPoint x="195" y="98" as="sourcePoint" />
            <mxPoint x="310" y="98" as="targetPoint" />
          </mxGeometry>
        </mxCell>
        <mxCell id="zSlqY6Okff1FfsctFwEY-24" value="" style="endArrow=classic;html=1;rounded=0;entryX=0.99;entryY=0.852;entryDx=0;entryDy=0;entryPerimeter=0;arcSize=19;exitX=-0.004;exitY=0.44;exitDx=0;exitDy=0;exitPerimeter=0;" edge="1" parent="1">
          <mxGeometry width="50" height="50" relative="1" as="geometry">
            <mxPoint x="309.44000000000005" y="123.60000000000002" as="sourcePoint" />
            <mxPoint x="195.60000000000002" y="124.15199999999993" as="targetPoint" />
          </mxGeometry>
        </mxCell>
        <mxCell id="zSlqY6Okff1FfsctFwEY-7" value="&lt;b&gt;AXI Bus&lt;/b&gt;" style="html=1;shadow=0;dashed=0;align=center;verticalAlign=middle;shape=mxgraph.arrows2.twoWayArrow;dy=0.65;dx=22;rotation=90;" vertex="1" parent="1">
          <mxGeometry x="172.5" y="72.5" width="145" height="80" as="geometry" />
        </mxCell>
        <mxCell id="zSlqY6Okff1FfsctFwEY-25" value="" style="shape=waypoint;sketch=0;fillStyle=solid;size=6;pointerEvents=1;points=[];fillColor=none;resizable=0;rotatable=0;perimeter=centerPerimeter;snapToPoint=1;" vertex="1" parent="1">
          <mxGeometry x="123" y="205" width="20" height="20" as="geometry" />
        </mxCell>
        <mxCell id="zSlqY6Okff1FfsctFwEY-27" value="" style="shape=waypoint;sketch=0;fillStyle=solid;size=6;pointerEvents=1;points=[];fillColor=none;resizable=0;rotatable=0;perimeter=centerPerimeter;snapToPoint=1;" vertex="1" parent="1">
          <mxGeometry x="300" y="114" width="20" height="20" as="geometry" />
        </mxCell>
        <mxCell id="zSlqY6Okff1FfsctFwEY-28" value="" style="shape=waypoint;sketch=0;fillStyle=solid;size=6;pointerEvents=1;points=[];fillColor=none;resizable=0;rotatable=0;perimeter=centerPerimeter;snapToPoint=1;" vertex="1" parent="1">
          <mxGeometry x="188" y="88" width="20" height="20" as="geometry" />
        </mxCell>
        <mxCell id="zSlqY6Okff1FfsctFwEY-29" value="" style="endArrow=classic;html=1;rounded=0;exitX=0.25;exitY=0;exitDx=0;exitDy=0;" edge="1" parent="1">
          <mxGeometry width="50" height="50" relative="1" as="geometry">
            <mxPoint x="345.0000000000002" y="159" as="sourcePoint" />
            <mxPoint x="345" y="139" as="targetPoint" />
          </mxGeometry>
        </mxCell>
        <mxCell id="zSlqY6Okff1FfsctFwEY-30" value="" style="endArrow=classic;html=1;rounded=0;exitX=0.769;exitY=1.013;exitDx=0;exitDy=0;exitPerimeter=0;entryX=0.767;entryY=-0.019;entryDx=0;entryDy=0;entryPerimeter=0;" edge="1" parent="1">
          <mxGeometry width="50" height="50" relative="1" as="geometry">
            <mxPoint x="418.65999999999997" y="138.338" as="sourcePoint" />
            <mxPoint x="418.3800000000001" y="159.04999999999998" as="targetPoint" />
          </mxGeometry>
        </mxCell>
        <mxCell id="zSlqY6Okff1FfsctFwEY-31" value="" style="shape=waypoint;sketch=0;fillStyle=solid;size=6;pointerEvents=1;points=[];fillColor=none;resizable=0;rotatable=0;perimeter=centerPerimeter;snapToPoint=1;" vertex="1" parent="1">
          <mxGeometry x="335" y="149.5" width="20" height="20" as="geometry" />
        </mxCell>
        <mxCell id="zSlqY6Okff1FfsctFwEY-32" value="" style="shape=waypoint;sketch=0;fillStyle=solid;size=6;pointerEvents=1;points=[];fillColor=none;resizable=0;rotatable=0;perimeter=centerPerimeter;snapToPoint=1;" vertex="1" parent="1">
          <mxGeometry x="409" y="129" width="20" height="20" as="geometry" />
        </mxCell>
      </root>
    </mxGraphModel>
  </diagram>
</mxfile>
